<?xml version="1.0" encoding="utf-8"?>
<!-- Generator: Adobe Illustrator 22.0.1, SVG Export Plug-In . SVG Version: 6.00 Build 0)  -->
<svg version="1.1" id="Layer_1" xmlns="http://www.w3.org/2000/svg" xmlns:xlink="http://www.w3.org/1999/xlink" x="0px" y="0px"
	 viewBox="0 0 818 473.5" style="enable-background:new 0 0 818 473.5;" xml:space="preserve">
<style type="text/css">
	.st0{fill:#917E99;}
	.st1{fill:#E5E5E5;}
	.st2{fill:#BF7F34;}
	.st3{fill:#A9681B;}
	.st4{fill:#974F15;}
	.st5{fill:#AD521C;}
	.st6{fill:#67737F;}
	.st7{fill:#896F74;}
	.st8{fill:#F28B46;}
	.st9{fill:#FDC844;}
	.st10{fill:#F8EA4B;}
	.st11{fill:#FFFEFE;}
	.st12{fill:#E96713;}
	.st13{fill:#EABB85;}
	.st14{fill:#FCE924;}
	.st15{fill:#EF7C27;}
	.st16{fill:#442917;}
	.st17{fill:#E3E4E5;}
	.st18{fill:#D80F16;}
	.st19{fill:#D5DCF1;}
	.st20{fill:#70992D;}
	.st21{fill:#5F832D;}
	.st22{fill:#B8191A;}
	.st23{fill:#F0E3D3;}
	.st24{fill:#D6C9B9;}
	.st25{fill:#A56317;}
	.st26{fill:#804E17;}
	.st27{fill:none;}
	.st28{fill:#60210C;}
	.st29{fill:#13889B;}
	.st30{fill:#FBCEB6;}
	.st31{fill:#104E70;}
	.st32{fill:#167E96;}
	.st33{fill:#E0B495;}
	.st34{fill:#02637D;}
	.st35{fill:#C61718;}
	.st36{fill:#EDEDED;}
	.st37{fill:#424242;}
	.st38{fill:#2D2D2D;}
	.st39{fill:#B71918;}
	.st40{fill:#AD1917;}
	.st41{fill:#1A899B;}
	.st42{fill:#239DAA;}
	.st43{fill:#474747;}
	.st44{fill:#D965A3;}
	.st45{fill:#FBD0B3;}
	.st46{fill:#010202;}
	.st47{fill:#FFFFFF;}
	.st48{fill:#B53318;}
	.st49{fill:#FFFEFC;}
	.st50{fill:#E8B297;}
	.st51{fill:#A5664A;}
	.st52{fill:#CC1519;}
	.st53{fill:#E8441E;}
	.st54{fill:#C8C1BB;}
</style>
<rect y="377.2" class="st0" width="818" height="96.3"/>
<rect x="-0.3" y="362.7" class="st1" width="818.9" height="38"/>
<g id="Layer_4">
	<rect x="155.8" y="110.8" class="st2" width="245.5" height="280"/>
</g>
<g id="Layer_3">
	<rect x="153.9" y="198.7" class="st3" width="41" height="26"/>
	<rect x="153.9" y="271.2" class="st3" width="41" height="26"/>
	<rect x="153.9" y="349.2" class="st3" width="41" height="26"/>
	<rect x="153.9" y="121.2" class="st3" width="41" height="26"/>
	<rect x="362.9" y="198.7" class="st3" width="41" height="26"/>
	<rect x="362.9" y="271.2" class="st3" width="41" height="26"/>
	<rect x="362.9" y="349.2" class="st3" width="41" height="26"/>
	<rect x="362.9" y="121.2" class="st3" width="41" height="26"/>
	<rect x="153.9" y="229.7" class="st4" width="20.5" height="32"/>
	<rect x="153.9" y="307.2" class="st5" width="20.5" height="32"/>
	<rect x="153.9" y="156.9" class="st5" width="20.5" height="32"/>
	<rect x="383.4" y="156.9" class="st5" width="20.5" height="32"/>
	<rect x="383.4" y="307.2" class="st5" width="20.5" height="32"/>
	<rect x="383.4" y="229.7" class="st4" width="20.5" height="32"/>
	<rect x="206.4" y="116.2" class="st5" width="136" height="23"/>
	<path class="st6" d="M344.7,210c-2.4-22.8-29.4-40.8-62.4-40.8s-60,18-62.4,40.8h-0.2v171.1h125.2V210H344.7z"/>
	<path class="st7" d="M366.8,375.3c0,26.7-165.1,26.9-165.1,0c0-53.7,37-97.2,82.6-97.2S366.8,321.7,366.8,375.3z"/>
	<path class="st8" d="M367.9,398c0,12.1-167.5,12.1-167.5,0c0-48.3,37.5-87.5,83.8-87.5S367.9,349.7,367.9,398z"/>
	<path class="st9" d="M347.4,385.2c0-30.7-28.7-55.7-64.1-55.7s-64.1,24.9-64.1,55.7S347.4,415.9,347.4,385.2z"/>
	<ellipse class="st10" cx="284.7" cy="379.2" rx="30.3" ry="28"/>
	<ellipse class="st11" cx="285.7" cy="381.7" rx="12.3" ry="9.5"/>
	<circle class="st9" cx="270.9" cy="306.7" r="3.5"/>
	<circle class="st9" cx="240.9" cy="323.1" r="3.3"/>
	<circle class="st9" cx="309.6" cy="309.6" r="2.9"/>
	<circle class="st9" cx="288.9" cy="259.7" r="1.9"/>
	<circle class="st9" cx="270.4" cy="227.7" r="3"/>
	<circle class="st9" cx="230.4" cy="239.6" r="1.4"/>
	<circle class="st12" cx="260.6" cy="253.1" r="3.6"/>
	<circle class="st12" cx="234" cy="295" r="2.2"/>
	<circle class="st12" cx="285.5" cy="285.2" r="3.4"/>
	<circle class="st12" cx="315" cy="239.6" r="3"/>
	<circle class="st12" cx="335.2" cy="287.7" r="2.5"/>
	<circle class="st12" cx="288.3" cy="207.7" r="2.6"/>
	<circle class="st12" cx="249.4" cy="212.6" r="2.3"/>
	<g>
		<path class="st13" d="M370.6,206.9c-3.5-35.5-42.2-63.5-89.5-63.5s-86,28-89.5,63.5h-0.3v173h27.3V209.7h0.2
			c2.4-22.8,29.4-40.8,62.4-40.8s60,18,62.4,40.8h0.2v170.2h27v-173L370.6,206.9L370.6,206.9z"/>
	</g>
</g>
<g id="Layer_6">
	<path class="st14" d="M184.8,19.8c0-8.6-1.2-15.6-2.7-15.6s-2.7,7-2.7,15.6s0.7,7.2,2.1,7.2S184.8,28.4,184.8,19.8z"/>
	<path class="st15" d="M183.4,23.5c0-4.3-0.6-7.8-1.3-7.8s-1.3,3.5-1.3,7.8s0.3,3.6,1.1,3.6C182.6,27.1,183.4,27.8,183.4,23.5z"/>
	<g>
		<g>
			<path class="st16" d="M181.6,25.8c-0.4,0.5-0.3,1.3-0.3,1.9c0,0.8,0.1,1.6,0.2,2.4c0.1,0.8,1.4,0.8,1.3,0
				c-0.1-0.6-0.1-1.2-0.2-1.8c0-0.4-0.2-1.5,0.1-1.8C183.2,25.8,182.1,25.2,181.6,25.8L181.6,25.8z"/>
		</g>
	</g>
	<path class="st14" d="M394.2,20.8c0-8.6-1.2-15.6-2.7-15.6s-2.7,7-2.7,15.6s0.7,7.2,2.1,7.2C392.5,28.1,394.2,29.5,394.2,20.8z"/>
	<path class="st15" d="M392.9,24.5c0-4.3-0.6-7.8-1.3-7.8c-0.7,0-1.3,3.5-1.3,7.8s0.3,3.6,1.1,3.6C392.1,28.1,392.9,28.8,392.9,24.5
		z"/>
	<g>
		<g>
			<path class="st16" d="M391.2,26.5c-0.4,0.4-0.4,1.1-0.4,1.6c0,0.8,0.1,1.5,0.2,2.3s1.3,0.5,1.2-0.3c-0.1-0.5-0.1-1-0.1-1.6
				c0-0.3,0-0.5,0-0.8c0-0.1,0-0.2,0-0.2c0-0.2,0-0.3,0-0.1C392.7,26.9,391.8,26,391.2,26.5L391.2,26.5z"/>
		</g>
	</g>
	<path class="st14" d="M350.4,44.8c0-8.6-1.2-15.6-2.7-15.6s-2.7,7-2.7,15.6s0.7,7.2,2.1,7.2C348.7,52.1,350.4,53.5,350.4,44.8z"/>
	<path class="st15" d="M349.1,48.5c0-4.3-0.6-7.8-1.3-7.8c-0.7,0-1.3,3.5-1.3,7.8s0.3,3.6,1.1,3.6C348.2,52.1,349.1,52.8,349.1,48.5
		z"/>
	<g>
		<g>
			<path class="st16" d="M347.3,50.2c-0.4,0.4-0.4,1.1-0.4,1.6c0,0.8,0.1,1.5,0.2,2.3s1.3,0.5,1.2-0.3c-0.1-0.5-0.1-1-0.1-1.6
				c0-0.3,0-0.5,0-0.8c0-0.1,0-0.2,0-0.2c0-0.2,0-0.3,0-0.1C348.8,50.5,347.9,49.7,347.3,50.2L347.3,50.2z"/>
		</g>
	</g>
	<g>
		<polygon class="st17" points="172.6,69.7 190.9,51.7 190.9,45.7 172.6,63.7 		"/>
		<polygon class="st17" points="179.6,77.4 190.9,66.3 190.9,60.1 173.3,77.4 		"/>
		<polygon class="st17" points="172.6,55.3 190.9,37.3 190.9,31.4 172.6,49.3 		"/>
		<polygon class="st17" points="177.9,29.7 172.6,34.8 172.6,40.9 184,29.7 		"/>
		<polygon class="st17" points="190.9,77.4 190.9,74.7 188.1,77.4 		"/>
		<polygon class="st18" points="172.6,40.9 172.6,49.3 190.9,31.4 190.9,29.7 184,29.7 		"/>
		<polygon class="st18" points="172.6,63.7 190.9,45.7 190.9,37.3 172.6,55.3 		"/>
		<polygon class="st18" points="172.6,77.4 173.3,77.4 190.9,60.1 190.9,51.7 172.6,69.7 		"/>
		<polygon class="st18" points="172.6,29.7 172.6,34.8 177.9,29.7 		"/>
		<polygon class="st18" points="188.1,77.4 190.9,74.7 190.9,66.3 179.6,77.4 		"/>
		<polygon class="st17" points="382.1,69.7 400.4,51.7 400.4,45.7 382.1,63.7 		"/>
		<polygon class="st17" points="389.1,77.4 400.4,66.3 400.4,60.1 382.8,77.4 		"/>
		<polygon class="st17" points="382.1,55.3 400.4,37.3 400.4,31.4 382.1,49.3 		"/>
		<polygon class="st17" points="387.3,29.7 382.1,34.8 382.1,40.9 393.5,29.7 		"/>
		<polygon class="st17" points="400.4,77.4 400.4,74.7 397.6,77.4 		"/>
		<polygon class="st18" points="393.5,29.7 382.1,40.9 382.1,49.3 400.4,31.4 400.4,29.7 		"/>
		<polygon class="st18" points="382.1,63.7 400.4,45.7 400.4,37.3 382.1,55.3 		"/>
		<polygon class="st18" points="382.1,77.4 382.8,77.4 400.4,60.1 400.4,51.7 382.1,69.7 		"/>
		<polygon class="st18" points="382.1,29.7 382.1,34.8 387.3,29.7 		"/>
		<polygon class="st18" points="397.6,77.4 400.4,74.7 400.4,66.3 389.1,77.4 		"/>
		<polygon class="st17" points="356.9,75.2 356.9,69.6 351.1,75.2 		"/>
		<polygon class="st17" points="356.9,61.2 356.9,55.2 338.6,73.2 338.6,75.2 342.6,75.2 		"/>
		<polygon class="st17" points="343.9,53.5 338.6,58.7 338.6,64.8 350,53.5 		"/>
		<polygon class="st18" points="356.9,53.5 350,53.5 338.6,64.8 338.6,73.2 356.9,55.2 		"/>
		<polygon class="st18" points="351.1,75.2 356.9,69.6 356.9,61.2 342.6,75.2 		"/>
		<polygon class="st18" points="338.6,53.5 338.6,58.7 343.9,53.5 		"/>
	</g>
	<polygon class="st19" points="162,66.3 201.9,66.3 197.1,76.1 166.9,76.1 	"/>
	<polygon class="st19" points="371.6,67 411.5,67 406.8,76.7 376.5,76.7 	"/>
	<polygon class="st19" points="331.8,71.9 363.7,71.9 362.9,81.6 332.7,81.6 	"/>
	<rect x="232.8" y="32.7" class="st20" width="59.9" height="44"/>
	<rect x="272.7" y="32.8" class="st21" width="20" height="45"/>
	<rect x="252.1" y="54" class="st22" width="40.5" height="3.3"/>
	<rect x="232.6" y="54" class="st18" width="40.5" height="3.3"/>
	<rect x="248.8" y="32.7" class="st18" width="3.3" height="42.5"/>
	<rect x="280.9" y="33.2" class="st22" width="3.3" height="41.7"/>
	<polygon class="st18" points="242.5,16.1 231.8,30.1 250.4,33.1 	"/>
	<polyline class="st18" points="263.9,28.2 256.4,21.1 250.4,33.1 	"/>
</g>
<g id="Layer_2_1_">
	<rect x="133.4" y="100.2" class="st23" width="290.3" height="17.3"/>
	<polygon class="st23" points="433.4,100.5 123.7,100.5 118.7,74.8 438.4,74.8 	"/>
	<g>
		<polygon class="st24" points="433.4,100.5 434.8,93.2 122.3,93.2 123.7,100.5 		"/>
	</g>
	<rect x="133.4" y="110.8" class="st24" width="290.3" height="6.7"/>
	<rect x="138.6" y="377.7" class="st25" width="280" height="33.5"/>
	<rect x="138.6" y="401.6" class="st26" width="280" height="9"/>
	<rect x="143.3" y="380.2" class="st2" width="270.5" height="6.5"/>
	<g>
		<line class="st27" x1="884.6" y1="-146" x2="888.7" y2="-149.7"/>
	</g>
	<g>
		<line class="st27" x1="886.7" y1="-173.8" x2="890.8" y2="-177.5"/>
	</g>
</g>
<g id="Layer_1_1_">
	<polygon class="st28" points="512.4,407 503.1,441.3 495.1,441.3 489.8,402.1 	"/>
	<polygon class="st28" points="580,413.7 577.4,440.5 567.4,439.9 565.1,413.7 	"/>
	<polygon class="st28" points="639.9,413.7 632.8,441.4 621.1,441.4 621.1,414.5 	"/>
	<polygon class="st28" points="689.8,408 697.3,440.5 708.3,440.5 709.8,404.1 	"/>
	<path class="st29" d="M649.6,354.5c0,26.8-118.3,39.7-126.9,52.7c-4.5,6.8-45.2,12.3-50.8,12.3c-9.7,0-5.5-0.8-10.9-19
		c-1.7-5.9-8.7-31.3-11.5-56.3c-3-27.4-1.6-54.6,2.2-61.7c4.9-9.1,13.6-11,20.2-11c8.6,0,98.3-0.6,104.1,21.3
		C579,303.8,649.6,351.7,649.6,354.5z"/>
	<path class="st30" d="M508.7,266.3c-0.9-1.9-2.8-7.5-7.3-7.9c-3.1-0.3-15.1,5.3-17.7,6.5c-6.4,2.9-11.7,14.2-10.2,17.5
		s7.9,3.5,14.3,0.6c0.8-0.4,1.7-2.1,2.8-2.1c1,0,4.8,4.3,9.2,0.7C501.6,280.3,509.1,267.2,508.7,266.3z"/>
	<path class="st31" d="M742.4,201.5c0,9.7-13.9,36.4-17.7,70.3c-3.7,32.7,5.3,46-0.3,57c-19.4,37.6-61.2,24.7-82,24.7
		c-40.6,0-50-131.6-50-160.3s24.1-60.9,64.7-60.9c18.3,0,38.5,6.5,63.7,18.9C743,162.1,742.4,185.7,742.4,201.5z"/>
	<path class="st32" d="M712.1,183.5c0,9.7-12.6,44.8-17,78.7c-2,15,7.7,46,2,57c-19.4,37.6-61.2,24.7-82,24.7
		c-7,0-17.3,11.5-22.5,4.9c-3.7-4.7-43-4.1-46-11.2c-3.9-9.4,32.9-42.5,30.2-54.2c-9-38.6-11.7-84.3-11.7-99.9
		c0-28.7,32.9-52,73.5-52c18.3,0,42,2.2,54.8,10C709.1,151,712.1,167.7,712.1,183.5z"/>
	<polygon class="st33" points="551.4,171.6 548.7,184.8 576.4,208.1 601.2,174 591.7,155.8 564.2,152.2 	"/>
	<path class="st31" d="M659.7,411.5c0,2.4-4,6.9-17.3,8c-37.4,3.3-114.1,0-117.8,0c-11.5,0-20.8-13.1-20.8-29.2
		c0-4.6-1.4-30.8,0-34.7c3.4-9.7,12.6,5.5,20.8,5.5c6.7,0,75.6-18.4,111.8-5.5C662.3,364.8,659.7,404.7,659.7,411.5z"/>
	<path class="st34" d="M651.7,341.5c0,3.9,2.3,32.5-16.7,30c-15.3-2-35.5-0.7-53.6-0.7c-30.8,0.1-57.2,2.3-61.2,2.3
		c-2.6,0-13.8-1.5-15.4-4.2c-2.3-3.6-1.7-12.2-1.7-17.2c0-11.8,7.7-21.3,17.1-21.3c4.1,0,26.8,1.6,55.9,1.7
		c13.8,0,33.1-2.6,44.9-1.7C641.8,332.1,651.7,337.2,651.7,341.5z"/>
	<path class="st35" d="M498.3,417c-5.1-12.1-13.7-5.2-26.6-2.7c-2.2,0.4-1.8,3.4-3.2,5.9c-1.1,2-3.9,3.7-5.3,3.7
		c-8.3,0-19.8,3.7-24.5,9.5c-3,3.8-1.4,10.2-0.3,10.8c4.5,2.6,60.2-0.3,64.7-2.2c2.2-0.9,0.8-6,0-11.2
		C502.3,425.8,498.8,418.2,498.3,417z"/>
	<path class="st35" d="M568.9,418.8c-1.7-3.9-4.9-11.3-7.8-12.3c-6-2.2-13.3,5.5-22,7.1c-2.2,0.4-1.8,3.4-3.2,5.9
		c-1.1,2-3.9,3.7-5.3,3.7c-8.3,0-19.8,3.7-24.5,9.5c-3,3.8-1.4,10.2-0.3,10.8c4.5,2.6,60.2-0.3,64.7-2.2c2.2-0.9,0.8-6,0-11.2
		C569.6,425.1,569.4,420,568.9,418.8z"/>
	<path class="st36" d="M437.4,442.2c0.3,1,0.7,1.7,1,1.9c4.5,2.6,60.2-0.3,64.7-2.2c1.2-0.5,1.3-2.3,1-4.7c0,0-4.2,1.2-10.5,2.1
		c-4.4,0.6-9.8,0.9-16.1,1.3c-4.3,0.3-38.2-0.8-39.4-0.9C436.6,439.7,437.4,442.2,437.4,442.2z"/>
	<path class="st36" d="M504.7,441.5c0.3,1,0.7,1.7,1,1.9c4.5,2.6,60.2-0.3,64.7-2.2c1.2-0.5,1.3-2.3,1-4.7c0,0-4.2,1.2-10.5,2.1
		c-4.4,0.6-9.8,0.9-16.1,1.3c-4.5,0.3-19.3,0.4-28.4-0.5c-6.1-0.6-7.8-2.2-9.1-2.3C505,437.1,504.7,441.5,504.7,441.5z"/>
	<path class="st36" d="M446.5,427.7c-3.2,1.5-6,3.4-7.7,5.6c-3,3.8-1.4,10.2-0.3,10.8c0.8,0.5,1,0.6,4.6,0.8
		C443.9,445,446.5,427.7,446.5,427.7z"/>
	<path class="st36" d="M513.7,427.1c-3.2,1.5-6,3.4-7.7,5.6c-3,3.8-1.4,10.2-0.3,10.8c0.8,0.5,1,0.6,4.6,0.8
		C511.1,444.3,513.8,427,513.7,427.1z"/>
	<g>
		<path class="st37" d="M533.2,320.8c-9.3,0-19.8,1.3-27.5,6.6s-12.4,12.5-14,21.6c-0.3,1.9,0.2,23.4,2,41.3
			c1.1,11,3.7,20.9,3.9,23.3c0,0.8,0,1.7-0.5,2.3c-0.4,0.4-0.9,0.6-1.4,0.8c-9.6,3.6-19.9,5.2-30.1,4.7c-0.8,0-1.6-0.1-2.2-0.4
			c-0.6-0.3-5.7-36.4-5.7-44.1c0.1-11.4-0.9-23.6,1.2-34.9c2-11.2,6.4-23.9,13.8-32.6c9-10.7,22.4-16.6,36-19.7s28.7-4.5,42.5-1.3
			l-0.4-0.6c1.1,0.9,2,1.9,3,2.9c5,4.7,11.7,7.3,18.5,8.5s13.7,1.1,20.6,1c8.4-0.1,16.8-0.2,25.3-0.4c0.4,0,0.8,0,1.1,0.3
			c0.2,0.3,0.1,0.6,0.1,0.9c-0.6,2.4-2.1,4.5-2.9,6.8c-1,2.8-1,5.9-1.3,8.9s-3.8,10-6.4,10.6c-5.7,1.3-17.3,2-22.9,3.1
			c-9.6,1.8-19.8,4-26.3,11.3c-7.1,8.1-5.8,20.3-4.2,31c1.6,11.2,5.5,22.1,9.9,32.5c1,2.3,1.5,4.2,0.7,6.7
			c-0.1,0.5-6.7,4.6-15.1,5.8c-8.9,1.3-19.3-0.4-19.9-1.6c-4.1-10-9.1-28.6-10.6-45.3c-0.5-5.1-1.4-14.7-0.3-23.1
			c1-7.8,4.1-14.7,4.6-15.8c5-10.4,15.5-16.5,25.4-22.4"/>
	</g>
	<g>
		<path class="st38" d="M592.8,300.1c8.4-0.1,16.8-0.2,25.3-0.4c0.4,0,0.8,0,1.1,0.3c0.2,0.3,0.1,0.6,0.1,0.9
			c-0.6,2.4-2.1,4.5-2.9,6.8c-1,2.8-1,5.9-1.3,8.9s-3.8,10-6.4,10.6c-5.7,1.3-17.3,2-22.9,3.1c-9.6,1.8-19.8,4-26.3,11.3
			c-7.1,8.1-5.8,20.3-4.2,31c1.6,11.2,5.5,22.1,9.9,32.5c1,2.3,1.5,4.2,0.7,6.7c-0.1,0.5-6.7,4.6-15.1,5.8
			c-0.8,0.1-1.2-7.7-3.6-17.2c-4.4-17.4-10.5-43.6-2.3-60.3c6.2-12.5,30.3-14.5,43-20.5c12.9-6.1,16.8-18.5,19.1-19.8"/>
	</g>
	<g>
		<path class="st38" d="M532.6,320.8c-9.3,0-19.2,1.3-26.9,6.6s-12.4,12.5-14,21.6c-0.3,1.9,0.2,23.4,2,41.3
			c1.1,11,3.7,20.9,3.9,23.3c0,0.8,0,1.7-0.5,2.3c-0.4,0.4-0.9,0.6-1.4,0.8c-4,1.5-8.2,2.7-12.5,3.5c-0.8,0.1-4.8-22.3-4.9-44.8
			c-0.1-19.8,3.5-39.6,7.1-46.3c7.7-14.4,58-19.3,61.3-18.6c0,0-4.6,3-7.8,5.4C535.6,318.3,532.6,320.8,532.6,320.8z"/>
	</g>
	<g>
		<path class="st39" d="M552.4,184c2.5,0.4,1.8,5.2,4.1,6.4c1.3,0.7,2.1,1.9,2.8,3.2c2.9,5.9,2.6,12.8,2.1,19.4
			c-0.2,3.7-2.2,10.6-3.3,13c-1.7,3.7-10.5,22.3-21.5,32.5c-6,5.6-29.6,19.3-32.1,20c1.6-1.8,2.4-7.8-0.7-12.3
			c-2.4-3.5-8.4-6-10.3-6.1c2.8-2,5.6-4,8.8-5.3c2.9-1.2,19.1-9.6,22.3-14c3.5-4.7,6.1-10,8.6-15.3c1.4-2.8,4.8-13.9,7-21.9
			c2.2-7.9,3.5-17.8,5.5-18.2C547.6,185,552.4,184,552.4,184z"/>
	</g>
	<g>
		<path class="st40" d="M549.6,184c2.5,0.4,5.1,3.8,6.9,6.4c0.8,1.2,2.1,1.9,2.8,3.2c2.9,5.9,2.6,12.8,2.1,19.4
			c-0.2,3.7-2.2,10.6-3.3,13c-1.7,3.7-10.5,22.3-21.5,32.5c-6,5.6-29.6,19.3-32.1,20c1.3-1.5,2.1-5.7,0.7-9.6c0,0,6.2-2.8,13-7.2
			c7.7-5,16.1-12.3,17.7-14.8c5.3-8.7,12.1-18.3,14-28.8C552.2,203.9,549.6,184,549.6,184z"/>
	</g>
	<g>
		<path class="st35" d="M557.9,185.8c3.4,1.4,5.4,5.1,8.6,7c2.9,1.7,6.4,1.9,9.8,1.8c2.4,0,4.8-0.1,7-1c4.5-1.8,7.1-6.4,9.2-10.8
			c2.7-5.7,5.1-11.5,7-17.5c0.3-0.9,5.9-1.3,10.8,1.2c4.1,2.1,8.3,3.6,11.5,6.5c2.5,2.3,4.3,6.1,5,7c3.9,4.8,7.9,9.7,9.8,15.6
			c1.7,5.2,1.8,10.7,1.8,16.1c0,26-5,82-6.4,83.3c-0.8,0.8,0.7,1.3-0.4,1.7c-5.8,1.8-12.4,4.7-18.5,4.7c-6.3,0-26,1.7-42.3-0.9
			c-12.5-2-22.9-8.3-24.2-9.1c-1.1-0.7,4.2-46.6,4.9-55.2c0.8-9.2,3.8-17.6,2.8-26.7c-0.6-5.8-1.3-11.7-1.9-17.5
			c0,0-0.9-5.5,0.1-7.1C553.8,183.2,556.9,185.4,557.9,185.8z"/>
	</g>
	<path class="st39" d="M620.7,174.5c1.8,7.6-9,16.7-8.9,17.1c0.2,0.9,0.2,0.7,0.3,1.6c1.6,7.2,3.2,12.6,4.6,16.9
		c2.4,7.1,7.4,25.3,8.9,42.8c1.8,20.2,0.1,39.5,1.6,40c1.1,0.3,9.3-10.9,11.1-30.4c1.1-11.3-1.6-25.3-2.6-38.3
		c-1.6-20-2.8-38.6-8.2-47.4C627,175.7,619.7,170.1,620.7,174.5z"/>
	<path class="st41" d="M716.6,406.5c-1.7,1.4-11.4,4.7-19.8,6c-11.3,1.8-22.1,1.5-26.5,1.5c-5.6,0-20.7,1.2-31.8-1.3
		c-5.4-1.2-10.8-5.8-11.8-7c-7.6-9.4-30.6-98.9-8.8-130.5c3.6-5.3,21.2-4.9,43.6-3.8c22.4,1.1,48.7,1.4,58.3,7.9
		c0.9,0.6,3,2.9,4.3,5.7c1.7,3.8,2.7,8.7,3,11.9c1.3,10.6,0.6,26.2-0.3,42.3C725.2,370.8,720,403.5,716.6,406.5z"/>
	<path class="st42" d="M631.7,405.1c11.3,0,13.7-28,13.7-65.3c0-21.3-0.3-43.3-2.3-55.7c-1.6-9.4-4.5-11.8-7-11.8
		c-3.2,0-18.6,1.9-24.4,15.2c-1,2.3-3.5,30.8,0.7,59.5C617.7,383.8,622.1,405.1,631.7,405.1z"/>
	
		<ellipse transform="matrix(0.2174 -0.9761 0.9761 0.2174 196.5984 846.7842)" class="st31" cx="626.4" cy="300.8" rx="10.2" ry="6.9"/>
	<path class="st39" d="M560.5,182.3c0,0,3,7.9,16.8,7.4c14.2-0.5,17.6-22.6,17-23.2h6.2c0,0-2.1,16.3-11.7,24.5
		c-2.9,2.5-12.2,6.1-18.7,4.3c-8.9-2.4-15.1-10.9-15.1-10.9L560.5,182.3z"/>
	<path class="st35" d="M488.6,107"/>
	
		<ellipse transform="matrix(0.2174 -0.9761 0.9761 0.2174 78.5966 681.613)" class="st31" cx="464.4" cy="291.8" rx="10.2" ry="6.9"/>
	<path class="st43" d="M466.8,443.4c-6.2,0-13.8-0.2-19.1-0.7c-0.6-0.1-1.1-0.1-1.7-0.2c-2.6-0.2-4.8-0.4-6.4-1.2
		c-1.9-0.9-2.9-2.8-2.9-2.9c-0.1-0.2,0-0.5,0.2-0.7c0.2-0.1,0.5,0,0.7,0.2c0,0,0.9,1.6,2.5,2.4c1.5,0.7,3.6,0.9,6,1.1
		c0.6,0,1.1,0.1,1.7,0.2c8.9,0.9,23.7,0.8,28.3,0.5c1.6-0.1,3.1-0.2,4.5-0.3c4.4-0.3,8.2-0.5,11.5-1c3.5-0.5,7.4-1.3,11.5-2.3
		c0.1,0,0.4-0.1,0.5-0.1c0,0,0.1,1,0,1c-4.2,1-8.3,1.9-11.9,2.4c-3.3,0.5-7.2,0.7-11.6,1c-1.5,0.1-3,0.2-4.5,0.3
		C474.3,443.4,470.9,443.4,466.8,443.4z"/>
	<path class="st43" d="M534.1,442.5c-6.2,0-13.8-0.2-19.1-0.7c-0.6-0.1-1.1-0.1-1.7-0.2c-2.6-0.2-4.8-0.4-6.4-1.2
		c-1.3-0.6-2.2-1.7-2.6-2.3c-0.2-0.3,0.1-1.6,0.3-1.4c0,0,1.2,2,2.8,2.8c1.5,0.7,3.6,0.9,6,1.1c0.6,0,1.1,0.1,1.7,0.2
		c8.8,0.9,23.7,0.8,28.3,0.5c1.6-0.1,3.1-0.2,4.5-0.3c4.4-0.3,8.2-0.6,11.5-1c3.5-0.5,7.4-1.3,11.6-2.3c0.1,0,0.5-0.1,0.5-0.1
		c0.1,0.1,0.1,1,0.1,1s-0.2,0-0.4,0.1c-4.2,1-8.1,1.8-11.7,2.3c-3.3,0.5-7.2,0.7-11.6,1c-1.5,0.1-3,0.2-4.5,0.3
		C541.6,442.4,538.1,442.5,534.1,442.5z"/>
	<g>
		<path class="st44" d="M515.8,80.2c-3.7,3.2-7.4,6.8-9.2,11.3c-1.5,3.8-1.8,8-1.9,12c-0.3,12.2,0.1,24.4,0.2,36.5
			c0,1.5,0,3.1-0.5,4.6s-1.7,2.8-3.2,3c-1.1,0.2-5.8-0.6-5.8-0.6c0,0.2,1,3.9,3.5,7.4c2.4,3.3,6.3,6.3,7.5,7.3c4,3.2,8.9,5.5,14,5.5
			c8.8-1.5,2.7-75.1,6.3-77.3c5-3,40.3-7.6,42.4-6.6c2.8,1.2,4.8,3.9,5.8,6.8s1.2,6,1.4,9l3.3-18.4c0,0-16.9-13-35.3-14.2
			C532.6,65.8,520.2,76.4,515.8,80.2z"/>
	</g>
	<path class="st45" d="M589.9,142.7c0,22.4-25.5,47.1-42.3,42.6c-9.6-2.6-32-26-32.9-41.1c-0.2-4.1,2.1-8,1.3-13.8
		c-1.3-9-4.2-19.8-1.2-27.1c5.7-13.8,23.1-19.9,32.5-19.9c7.4,0,26.2-1.6,33.3,8C590.3,104.2,589.9,129.8,589.9,142.7z"/>
	<path class="st46" d="M527.8,125.1c0,4.1-1.9,7.3-4.8,7.3s-4.4-3.3-4.4-7.3s2.2-7.3,5.1-7.3S527.8,121.1,527.8,125.1z"/>
	<path class="st46" d="M564.3,127.1c0.1,4-1.9,7.4-4.9,7.4s-4.7-3.2-4.8-7.3c-0.1-4,2.3-7.4,5.3-7.4
		C562.9,119.8,564.3,123.1,564.3,127.1z"/>
	<circle class="st47" cx="521.1" cy="121.5" r="1.6"/>
	<circle class="st47" cx="557.4" cy="123.1" r="1.6"/>
	<path class="st48" d="M529.3,154.6c0,0,4,17.6,17.9,17.6c12.5,0,13-20,13-20L529.3,154.6z"/>
	<polygon class="st49" points="528.2,152.1 530.2,157.6 560,155.2 560.4,151.6 560.2,149 	"/>
	<path class="st50" d="M529.9,132.4c-1.6,5.8-0.4,11.1,2.6,11.9s8.7,0.7,10.3-5.1c1.6-5.8-1.3-18.5-4.3-19.4
		C535.5,119,531.5,126.7,529.9,132.4z"/>
	<g>
		<g>
			<path class="st51" d="M519,118.5c2.2-1.9,5-3,7.9-3.2c1.6-0.1,1.6-2.6,0-2.5c-3.6,0.2-6.9,1.5-9.7,3.9
				C516,117.8,517.8,119.5,519,118.5L519,118.5z"/>
		</g>
	</g>
	<g>
		<g>
			<path class="st51" d="M555.5,114.7c3.6-0.4,6.9,1,9.9,2.8c1.4,0.8,2.6-1.3,1.3-2.2c-3.3-2-7.2-3.6-11.1-3.2
				C553.9,112.4,553.9,114.9,555.5,114.7L555.5,114.7z"/>
		</g>
	</g>
	<g>
		<path class="st44" d="M579.6,93.3c3.6,4.5,12.7,39.8,9.8,54c-2.5,12.4-13.3,23-13.3,23c1.4,0.4,14.4,0.4,27.1-3.3
			c13.2-3.9,26.1-11.7,26.4-12.3c-5.9-1.8-10.4-4.4-14.7-8.8c-1.3-1.4-2.7-2.8-3.3-4.5c-0.4-1.2-0.5-2.4-0.6-3.6
			c-0.5-6.2-0.6-12.5-0.5-18.8c0.2-8,0.7-16.4-2.3-23.8s-6.2-13.2-12-18.7c-18.9-18-42.2-8.2-42.2-2"/>
	</g>
	<g>
		<path class="st44" d="M532.4,79.1c-3.7,0.7-7.3,1.7-10.9,3.1c-0.7,0.3-1.5,0.6-2,1.2c-0.7,0.7-1,1.7-1.3,2.6
			c-0.8,2.4-2.1,4.6-3.8,6.6c-2.4,2.8-5.6,5-7,8.4c-0.8,1.9-1,4.1-1.1,6.2c0,1.2,0,2.4,0.5,3.4s1.7,1.8,2.8,1.6
			c0.7-0.2,1.2-0.7,1.8-1.1c1.7-1.2,3.8-1.7,5.8-2.1c5.5-1.1,11.1-1.6,16.7-1.4c0.6,0,1.2,0,1.7-0.2c0.8-0.4,1.1-1.3,1.4-2.2
			c1.2-4.1,2.5-8.2,4.6-11.9c2-3.7,4.9-7.1,8.6-9.2c0.2,1-2.5,3.7-3.2,7.4c-1,5.3-0.2,12.1,0.1,15.2c0,0.5,0.1,1,0.4,1.3
			c0.3,0.4,0.9,0.5,1.4,0.6c5.4,1.1,11.1,0.4,16.6,0.5c4,0,8,0.4,12-0.1c4-0.6,8-2.3,10.3-5.6l-20-25.6L532.4,79.1z"/>
	</g>
</g>
<g id="Layer_10">
	<path class="st45" d="M632.5,131.7c-2.5-4.2-4.2-7.9-4.4-12.8c-0.1-3.9,0.4-7.8-0.1-11.7c-0.6-5.5-2.4-9.6-8.4-9.2
		c-2.6,0.2-5.1,0.8-7.4,1.9c-3,1.5-4.3,4.2-6.9,6c-4.1,2.7-5.8,4.2-4.6,9.5c1.7,7.4,4.5,14.9,6.8,22.1c0.8,2.5,4,9.5-0.3,9.8
		c-2.4,0.2-4.6-1.9-7.2-1.1c-5.7,1.8-2,8.2,1.6,9.8c3.7,1.7,8.7,1.4,12.7,1.6c5.3,0.3,10.6,0.4,15.9,0.5c0.2,0,0.4,0,0.6,0
		c0.2,0,0.4,0,0.6-0.1c4-0.5,7.2-1.6,8.2-6.2C641.6,143.9,636.4,138.1,632.5,131.7z"/>
	<g>
		<path class="st52" d="M621.2,175c13.2,0.8,22.8,0,36.4-1.2c-1.5-3.3-26.8-14.8-27.3-15.8c-1.7-3,0-9.6,3.7-13.2
			c2.7-2.6,7.4-2.7,8.3-2.7c2.1-0.1,4.3,0.5,6.3,1.1c9.2,2.6,18.2,6,27.6,7.8c2.9,0.6,5.9,1,8.8,1.8c7.7,2.2,14.4,7,20.7,12.1
			c3.7,3,7.7,6.7,7.7,11.5c0,2.9-1.5,5.5-3.3,7.7c-3.2,3.7-7.6,6.1-11.9,8.4c-16.5,8.6-34.2,15.4-52.7,17.3
			c-2.8,0.3-5.6,0.4-8.3,1.1c-1.7,0.4-3.4,1.1-5.1,1.5c-4.2,0.8-8.6-0.2-12.4-2.2c-1.9-1-3.8-2.4-4.9-4.3c-0.6-1.1-0.9-2.3-1.2-3.5
			c-0.9-4.1-1.2-8.4-0.8-12.5c0.5-4.9,2-9.5,4.9-13.5C617.7,176.3,620.4,175,621.2,175z"/>
	</g>
	<path class="st45" d="M596.4,138.2c0,0,0-2.4,0-6.6c0-2.4-0.8-5.2-0.5-7c0.2-1.4,1.5-2.1,2.1-2c2.7,0.5,6.3,2.3,4.6,8.2
		c-0.5,1.8-0.8,4.6-1.4,5.8c-0.4,0.8-1.8,2.3-2.9,2.6C597.1,139.5,596.4,138.7,596.4,138.2z"/>
	<g>
		<path class="st39" d="M713.3,176.4c0,2.9-1.5,5.5-3.3,7.7c-3.2,3.7-7.6,6.1-11.9,8.4c-16.5,8.6-34.2,15.4-52.7,17.3
			c-2.8,0.3-5.6,0.4-8.3,1.1c-1.7,0.4-3.4,1.1-5.1,1.5c-4.2,0.8-8.6-0.2-12.4-2.2c-1.9-1-3.8-2.4-4.9-4.3c-0.6-1.1-0.9-2.3-1.2-3.5
			c-0.2-0.7,8.9,4,22.3,3.7c10.4-0.2,23.9-5,35.5-7.9c8.1-2,30.2-10,34.2-19.2c3.4-7.7-11.1-16.6-7.7-19c1.1-0.7,11.9,8.3,14.2,11.7
			C713.8,174.4,713.3,176.3,713.3,176.4z"/>
	</g>
	<g>
		<path class="st39" d="M630.3,158c-0.5-0.9-0.7-2.3-0.6-3.7c0.1-0.7,29,16.1,42.2,24.8c5.3,3.4,6.7,5.8,4.9,4.9
			c-3.5-1.7-18.3-9.3-30.3-15.9C637.9,163.3,630.8,158.9,630.3,158z"/>
	</g>
</g>
<g id="Layer_5">
	<path class="st53" d="M211,132.2c0.4-0.4,0.7-1,0.7-1.7c0.2-5.5-4.9-8.1-9.8-7.1c-3.6,0.7-7.2,2.3-10.7,3.6c-2.8,1-7.3,1.7-9.4,3.9
		c-1.9,1.9-1.3,5.1-1.3,7.6c0.1,4.4,1.1,10.3-1.2,14.2c-3.8,6.2-9.2,10.6-12.1,17.5c-4.2,10.2-1.7,25,10.8,27.7
		c14.2,3.1,19.2-12.5,25.5-21.6c4.1-5.9,9.3-11.8,10.4-19.2C215.2,148.7,211.4,140.5,211,132.2z"/>
	<path class="st53" d="M384.5,128.2c0.4-0.4,0.6-1,0.6-1.8c-0.3-5.4-5.7-7.5-10.5-6.1c-3.5,1.1-6.9,3.1-10.3,4.7
		c-2.7,1.3-7.1,2.4-9,4.8c-1.7,2.1-0.8,5.2-0.5,7.7c0.5,4.4,2.2,10.2,0.2,14.2c-3.1,6.5-8.1,11.5-10.3,18.6
		c-3.2,10.6,0.9,25.1,13.6,26.5c14.5,1.6,17.8-14.4,23.2-24.1c3.5-6.3,8-12.7,8.4-20.1C390.4,144.1,385.8,136.4,384.5,128.2z"/>
	<path class="st20" d="M298.7,133.4c0.4-0.4,0.6-0.9,0.6-1.6c-0.1-5.2-4.9-7.4-9.3-6.3c-3.3,0.8-6.5,2.6-9.6,4
		c-2.5,1.1-6.6,2-8.4,4.2c-1.6,1.9-1,4.9-0.8,7.3c0.3,4.2,1.6,9.8-0.4,13.6c-3.1,6.1-7.9,10.6-10.1,17.3
		c-3.3,9.9-0.2,23.9,11.3,25.8c13.2,2.2,16.9-12.9,22.2-21.9c3.5-5.9,7.9-11.7,8.5-18.8C303.5,148.8,299.6,141.2,298.7,133.4z"/>
	<path class="st47" d="M214.2,131.4l-38,6c-3.5,0.6-6.8-1.9-7.3-5.3l-1.3-8c-0.6-3.5,1.9-6.8,5.3-7.3l38-6c3.5-0.6,6.8,1.9,7.3,5.3
		l1.3,8C220.1,127.5,217.7,130.8,214.2,131.4z"/>
	<path class="st47" d="M303.7,132.5l-38,6c-3.5,0.6-6.8-1.9-7.3-5.3l-1.3-8c-0.6-3.5,1.9-6.8,5.3-7.3l38-6c3.5-0.6,6.8,1.9,7.3,5.3
		l1.3,8C309.6,128.6,307.2,131.9,303.7,132.5z"/>
	<path class="st47" d="M389.1,132.5l-38,6c-3.5,0.6-6.8-1.9-7.3-5.3l-1.3-8c-0.6-3.5,1.9-6.8,5.3-7.3l38-6c3.5-0.6,6.8,1.9,7.3,5.3
		l1.3,8C395,128.6,392.6,131.9,389.1,132.5z"/>
	<path class="st54" d="M303,132.2l-37,6c-3.5,0.6-6.8-1.9-7.3-5.3c0,0,3.2,1.3,6.1,1.2s35.6-5.7,38-6.3c2.4-0.6,5.6-2.9,5.6-2.9
		C308.9,128.3,306.5,131.7,303,132.2z"/>
	<path class="st54" d="M213.6,131l-37,6c-3.5,0.6-6.8-1.9-7.3-5.3c0,0,3.2,1.3,6.1,1.2s35.6-5.7,38-6.3c2.4-0.6,5.6-2.9,5.6-2.9
		C219.5,127.2,217.1,130.5,213.6,131z"/>
	<path class="st54" d="M388.5,132l-37,6c-3.5,0.6-6.8-1.9-7.3-5.3c0,0,3.2,1.3,6.1,1.2s35.6-5.7,38-6.3c2.4-0.6,5.6-2.9,5.6-2.9
		C394.4,128.2,392,131.5,388.5,132z"/>
</g>
</svg>
